<svg xmlns="http://www.w3.org/2000/svg" viewBox="0 0 16 16"><path fill="#000" d="M5.196 1.571c.615 0 1.19.308 1.532.819l.471.708a.46.46 0 0 0 .383.205h4.588a2.416 2.416 0 0 1 2.416 2.416v.908c.683.4 1.074 1.223.852 2.06l-1.053 3.971a2.417 2.417 0 0 1-2.335 1.795H2.917a2.417 2.417 0 0 1-2.415-2.501V3.987A2.416 2.416 0 0 1 2.918 1.57h2.278Zm-1.417 6.185c-.469 0-.88.316-1.001.77l-.862 3.246c-.174.657.321 1.301 1.001 1.301h9.133c.469 0 .88-.316 1.001-.77l1.053-3.97a.46.46 0 0 0-.444-.577H3.78ZM2.918 2.952c-.572 0-1.035.463-1.035 1.035v3.307a2.415 2.415 0 0 1 1.896-.919h9.426v-.656c0-.571-.463-1.035-1.035-1.035H7.582a1.841 1.841 0 0 1-1.531-.82l-.472-.708a.46.46 0 0 0-.383-.204H2.918Z"/><path fill="#000" opacity=".2" d="M13.66 7.755a.46.46 0 0 1 .444.578l-1.053 3.97c-.12.454-.533.77-1.001.77H2.917c-.68 0-1.175-.644-1.001-1.301l.862-3.247c.12-.454.532-.77 1.001-.77H13.66Z"/></svg>
